<?xml version="1.0"?>
<svg xmlns="http://www.w3.org/2000/svg" xmlns:xlink="http://www.w3.org/1999/xlink" xmlns:svgjs="http://svgjs.com/svgjs" version="1.1" width="512" height="512" x="0" y="0" viewBox="0 0 496 496" style="enable-background:new 0 0 512 512" xml:space="preserve" class=""><g>
<g xmlns="http://www.w3.org/2000/svg">
	<g>
		<path d="M32,464V294.56l75.36-75.36c12.958,6.405,28.162,6.405,41.12,0l80,80c-3.031,6.511-4.561,13.619-4.48,20.8    c0,26.51,21.49,48,48,48c26.51,0,48-21.49,48-48c-0.042-7.152-1.682-14.204-4.8-20.64l96-96c6.498,3.086,13.607,4.671,20.8,4.64    c26.51,0,48-21.49,48-48c0-26.51-21.49-48-48-48c-26.51,0-48,21.49-48,48c0.042,7.152,1.682,14.203,4.8,20.64l-96,96    c-12.958-6.405-28.162-6.405-41.12,0l-80-80c2.952-6.475,4.428-13.525,4.32-20.64c0-26.51-21.49-48-48-48c-26.51,0-48,21.49-48,48    c0.042,7.152,1.682,14.203,4.8,20.64L32,249.44V0H0v480c0,8.837,7.163,16,16,16h480v-32H32z" fill="#5ec1b9" data-original="#000000" style=""/>
	</g>
</g>
<g xmlns="http://www.w3.org/2000/svg">
</g>
<g xmlns="http://www.w3.org/2000/svg">
</g>
<g xmlns="http://www.w3.org/2000/svg">
</g>
<g xmlns="http://www.w3.org/2000/svg">
</g>
<g xmlns="http://www.w3.org/2000/svg">
</g>
<g xmlns="http://www.w3.org/2000/svg">
</g>
<g xmlns="http://www.w3.org/2000/svg">
</g>
<g xmlns="http://www.w3.org/2000/svg">
</g>
<g xmlns="http://www.w3.org/2000/svg">
</g>
<g xmlns="http://www.w3.org/2000/svg">
</g>
<g xmlns="http://www.w3.org/2000/svg">
</g>
<g xmlns="http://www.w3.org/2000/svg">
</g>
<g xmlns="http://www.w3.org/2000/svg">
</g>
<g xmlns="http://www.w3.org/2000/svg">
</g>
<g xmlns="http://www.w3.org/2000/svg">
</g>
</g></svg>
