<?xml version="1.0"?>
<svg xmlns="http://www.w3.org/2000/svg" xmlns:xlink="http://www.w3.org/1999/xlink" xmlns:svgjs="http://svgjs.com/svgjs" version="1.1" width="512" height="512" x="0" y="0" viewBox="0 0 368.327 368.327" style="enable-background:new 0 0 512 512" xml:space="preserve" class=""><g>
<g xmlns="http://www.w3.org/2000/svg">
	<g>
		<g>
			<path d="M344.294,346.122H36.571c-12.539,0-20.898-10.971-20.898-24.033V14.367c0-4.328-3.509-7.837-7.837-7.837     C3.509,6.531,0,10.039,0,14.367V322.09c0,21.42,15.151,39.706,36.571,39.706h307.722c4.328,0,7.837-3.509,7.837-7.837     S348.622,346.122,344.294,346.122z" fill="#ffffff" data-original="#000000" style=""/>
			<path d="M331.755,43.102c-20.198,0-36.571,16.374-36.571,36.571c0.057,9.816,4.002,19.21,10.971,26.122l-25.078,30.302     c-5.339-2.729-11.245-4.161-17.241-4.18c-20.198,0-36.571,16.374-36.571,36.571c-0.085,2.623,0.09,5.248,0.522,7.837     l-30.302,8.359c-8.795-18.183-30.664-25.793-48.847-16.998c-12.375,5.986-20.348,18.406-20.639,32.149     c-0.016,5.213,1.051,10.372,3.135,15.151l-22.465,24.033c-6.321-5.195-14.284-7.973-22.465-7.837     c-20.198,0-36.571,16.374-36.571,36.571c0,20.198,16.374,36.571,36.571,36.571c20.08-0.281,36.291-16.491,36.571-36.571     c0.044-5.837-1.394-11.589-4.18-16.718l21.943-23.51c6.768,5.606,15.245,8.739,24.033,8.882     c20.08-0.281,36.291-16.491,36.571-36.571l33.437-9.404c6.907,9.209,17.746,14.629,29.257,14.629     c20.08-0.281,36.291-16.491,36.571-36.571c-0.113-8.139-2.863-16.022-7.837-22.465l27.167-31.869     c3.89,1.246,7.934,1.949,12.016,2.09c20.198,0,36.571-16.374,36.571-36.571C368.327,59.476,351.953,43.102,331.755,43.102z" fill="#ffffff" data-original="#000000" style=""/>
		</g>
	</g>
</g>
<g xmlns="http://www.w3.org/2000/svg">
</g>
<g xmlns="http://www.w3.org/2000/svg">
</g>
<g xmlns="http://www.w3.org/2000/svg">
</g>
<g xmlns="http://www.w3.org/2000/svg">
</g>
<g xmlns="http://www.w3.org/2000/svg">
</g>
<g xmlns="http://www.w3.org/2000/svg">
</g>
<g xmlns="http://www.w3.org/2000/svg">
</g>
<g xmlns="http://www.w3.org/2000/svg">
</g>
<g xmlns="http://www.w3.org/2000/svg">
</g>
<g xmlns="http://www.w3.org/2000/svg">
</g>
<g xmlns="http://www.w3.org/2000/svg">
</g>
<g xmlns="http://www.w3.org/2000/svg">
</g>
<g xmlns="http://www.w3.org/2000/svg">
</g>
<g xmlns="http://www.w3.org/2000/svg">
</g>
<g xmlns="http://www.w3.org/2000/svg">
</g>
</g></svg>
