<?xml version="1.0" encoding="utf-8"?>
<!-- Generator: Adobe Illustrator 16.0.2, SVG Export Plug-In . SVG Version: 6.00 Build 0)  -->
<!DOCTYPE svg PUBLIC "-//W3C//DTD SVG 1.1//EN" "http://www.w3.org/Graphics/SVG/1.1/DTD/svg11.dtd">
<svg version="1.1" id="Layer_1" xmlns="http://www.w3.org/2000/svg" xmlns:xlink="http://www.w3.org/1999/xlink" x="0px" y="0px"
	 width="612px" height="792px" viewBox="0 0 612 792" enable-background="new 0 0 612 792" xml:space="preserve">
<path fill="#FFFFFF" d="M508.962,137.402l-230.78,230.779l230.78,230.779c5.489,5.49,8.233,12.018,8.233,19.584
	c0,7.567-2.744,14.095-8.233,19.585l-72.161,72.16c-5.489,5.489-12.018,8.234-19.584,8.234s-14.095-2.745-19.584-8.234
	L75.109,387.766c-5.489-5.489-8.234-12.017-8.234-19.584c0-7.566,2.745-14.094,8.234-19.584L397.633,26.074
	c5.489-5.489,12.018-8.234,19.584-8.234s14.095,2.745,19.584,8.234l72.161,72.161c5.489,5.489,8.233,12.017,8.233,19.584
	C517.195,125.385,514.451,131.913,508.962,137.402L508.962,137.402z"/>
</svg>
